<svg width="36" height="37" viewBox="0 0 36 37" fill="none" xmlns="http://www.w3.org/2000/svg">
<path fill-rule="evenodd" clip-rule="evenodd" d="M17.913 0.893555H18.0863C19.5847 0.893555 20.833 0.893555 21.823 1.02689C22.8697 1.16689 23.8147 1.47689 24.573 2.23522C25.333 2.99522 25.643 3.94022 25.783 4.98522C25.883 5.71855 25.908 6.59189 25.9147 7.60189C26.9947 7.63689 27.958 7.70189 28.8147 7.81522C30.768 8.07855 32.3497 8.63189 33.598 9.87855C34.8447 11.1269 35.398 12.7086 35.6613 14.6619C35.9163 16.5619 35.9163 18.9869 35.9163 22.0502V22.2369C35.9163 25.3002 35.9163 27.7269 35.6613 29.6252C35.398 31.5786 34.8447 33.1602 33.598 34.4086C32.3497 35.6552 30.768 36.2086 28.8147 36.4719C26.9147 36.7269 24.4897 36.7269 21.4263 36.7269H14.573C11.5097 36.7269 9.08301 36.7269 7.18467 36.4719C5.23134 36.2086 3.64967 35.6552 2.40134 34.4086C1.15467 33.1602 0.601341 31.5786 0.338008 29.6252C0.0830078 27.7252 0.0830078 25.3002 0.0830078 22.2369V22.0502C0.0830078 18.9869 0.0830078 16.5602 0.338008 14.6619C0.601341 12.7086 1.15467 11.1269 2.40134 9.87855C3.64967 8.63189 5.23134 8.07855 7.18467 7.81522C8.1472 7.69605 9.11507 7.62485 10.0847 7.60189C10.0913 6.59189 10.118 5.71855 10.2163 4.98522C10.3563 3.94022 10.6663 2.99522 11.4247 2.23522C12.1847 1.47689 13.1297 1.16855 14.1747 1.02689C15.1663 0.893555 16.4163 0.893555 17.913 0.893555ZM12.5863 7.56355C13.2163 7.56022 13.878 7.56022 14.573 7.56022H21.4263C22.1213 7.56022 22.783 7.56022 23.413 7.56355C23.4063 6.61355 23.383 5.89689 23.3063 5.31855C23.2013 4.55022 23.023 4.22022 22.8063 4.00355C22.5897 3.78689 22.2597 3.60855 21.4897 3.50355C20.6863 3.39689 19.6063 3.39355 17.9997 3.39355C16.393 3.39355 15.313 3.39689 14.508 3.50522C13.7397 3.60855 13.4097 3.78689 13.193 4.00522C12.9763 4.22189 12.798 4.55022 12.693 5.31855C12.6163 5.89522 12.593 6.61189 12.5863 7.56355ZM7.51634 10.2936C5.83967 10.5186 4.87301 10.9419 4.16634 11.6469C3.46301 12.3519 3.03967 13.3186 2.81467 14.9952C2.58467 16.7069 2.58134 18.9652 2.58134 22.1436C2.58134 25.3219 2.58467 27.5802 2.81467 29.2936C3.03967 30.9686 3.46301 31.9352 4.16801 32.6402C4.87301 33.3452 5.83967 33.7686 7.51634 33.9936C9.22967 34.2236 11.4863 34.2269 14.6647 34.2269H21.3313C24.5097 34.2269 26.768 34.2236 28.4813 33.9936C30.1563 33.7686 31.123 33.3452 31.828 32.6402C32.533 31.9352 32.9563 30.9686 33.1813 29.2919C33.4113 27.5802 33.4147 25.3219 33.4147 22.1436C33.4147 18.9652 33.4113 16.7086 33.1813 14.9936C32.9563 13.3186 32.533 12.3519 31.828 11.6469C31.123 10.9419 30.1563 10.5186 28.4797 10.2936C26.768 10.0636 24.5097 10.0602 21.3313 10.0602H14.6647C11.4863 10.0602 9.23134 10.0636 7.51634 10.2936ZM17.9997 14.2269C18.3312 14.2269 18.6491 14.3586 18.8836 14.593C19.118 14.8274 19.2497 15.1454 19.2497 15.4769V15.4936C21.0647 15.9502 22.583 17.3819 22.583 19.3652C22.583 19.6967 22.4513 20.0147 22.2169 20.2491C21.9825 20.4835 21.6645 20.6152 21.333 20.6152C21.0015 20.6152 20.6835 20.4835 20.4491 20.2491C20.2147 20.0147 20.083 19.6967 20.083 19.3652C20.083 18.7252 19.373 17.8386 17.9997 17.8386C16.6263 17.8386 15.9163 18.7252 15.9163 19.3652C15.9163 20.0052 16.6263 20.8936 17.9997 20.8936C20.308 20.8936 22.583 22.4936 22.583 24.9219C22.583 26.9052 21.0647 28.3352 19.2497 28.7936V28.8102C19.2497 29.1417 19.118 29.4597 18.8836 29.6941C18.6491 29.9285 18.3312 30.0602 17.9997 30.0602C17.6682 30.0602 17.3502 29.9285 17.1158 29.6941C16.8814 29.4597 16.7497 29.1417 16.7497 28.8102V28.7936C14.9347 28.3369 13.4163 26.9052 13.4163 24.9219C13.4163 24.5904 13.548 24.2724 13.7825 24.038C14.0169 23.8036 14.3348 23.6719 14.6663 23.6719C14.9979 23.6719 15.3158 23.8036 15.5502 24.038C15.7846 24.2724 15.9163 24.5904 15.9163 24.9219C15.9163 25.5619 16.6263 26.4486 17.9997 26.4486C19.373 26.4486 20.083 25.5619 20.083 24.9219C20.083 24.2819 19.373 23.3936 17.9997 23.3936C15.6913 23.3936 13.4163 21.7936 13.4163 19.3652C13.4163 17.3819 14.9347 15.9502 16.7497 15.4936V15.4769C16.7497 15.1454 16.8814 14.8274 17.1158 14.593C17.3502 14.3586 17.6682 14.2269 17.9997 14.2269Z" fill="#681446"/>
</svg>
