<svg width="40" height="40" viewBox="0 0 40 40" fill="none" xmlns="http://www.w3.org/2000/svg">
<path d="M22.2 25.4444V20.1502H23.8C25 20.1502 25.4 20.1502 25.4 20.0767C25.4 20.0032 25.48 19.3414 25.56 18.5326C25.64 17.7237 25.72 16.9149 25.72 16.7679V16.4737H23.96H22.2V15.2973C22.2 14.6355 22.28 13.9737 22.36 13.9002C22.52 13.5325 22.92 13.3855 24.44 13.3855H25.8V11.5472V9.70898H23.64C21.24 9.70898 20.6 9.78251 19.64 10.2237C19 10.5178 18.36 11.1061 18.04 11.6208C17.64 12.4296 17.48 12.9443 17.48 14.7826L17.4 16.4737H16.2H15V18.312V20.1502H16.2H17.4V25.4444V30.7386H19.8H22.2V25.4444Z" fill="#ACAAA6"/>
</svg>
