<svg width="40" height="31" viewBox="0 0 40 31" fill="none" xmlns="http://www.w3.org/2000/svg">
<path d="M5.45977e-09 4.56006C5.45977e-09 3.5655 0.395088 2.61167 1.09835 1.90841C1.80161 1.20515 2.75544 0.810059 3.75 0.810059H26.25C27.2446 0.810059 28.1984 1.20515 28.9017 1.90841C29.6049 2.61167 30 3.5655 30 4.56006V8.31006H32.55C33.1118 8.31056 33.6664 8.4373 34.1727 8.68092C34.679 8.92455 35.124 9.27882 35.475 9.71756L39.1775 14.3426C39.7102 15.008 40.0003 15.8351 40 16.6876V22.0601C40 23.0546 39.6049 24.0084 38.9016 24.7117C38.1984 25.415 37.2446 25.8101 36.25 25.8101H35C35 27.1361 34.4732 28.4079 33.5355 29.3456C32.5979 30.2833 31.3261 30.8101 30 30.8101C28.6739 30.8101 27.4021 30.2833 26.4645 29.3456C25.5268 28.4079 25 27.1361 25 25.8101H12.5C12.5014 26.4765 12.3696 27.1365 12.1123 27.7513C11.855 28.3661 11.4774 28.9232 11.0016 29.39C10.5259 29.8567 9.96164 30.2236 9.34205 30.4692C8.72246 30.7147 8.06004 30.8339 7.39373 30.8197C6.72742 30.8056 6.07067 30.6583 5.46207 30.3867C4.85348 30.115 4.30534 29.7245 3.84987 29.2379C3.3944 28.7514 3.04079 28.1787 2.80984 27.5535C2.57888 26.9284 2.47524 26.2634 2.505 25.5976C1.77262 25.3398 1.13831 24.861 0.689611 24.2274C0.240914 23.5938 -4.18799e-05 22.8365 5.45977e-09 22.0601L5.45977e-09 4.56006ZM3.235 23.2001C3.687 22.46 4.32378 21.8504 5.08275 21.431C5.84171 21.0116 6.69675 20.7969 7.56382 20.808C8.43089 20.819 9.28015 21.0556 10.0281 21.4943C10.7761 21.9329 11.3971 22.5587 11.83 23.3101H25.67C26.1098 22.5507 26.7407 21.9198 27.5 21.4801V4.56006C27.5 4.22854 27.3683 3.9106 27.1339 3.67618C26.8995 3.44175 26.5815 3.31006 26.25 3.31006H3.75C3.41848 3.31006 3.10054 3.44175 2.86612 3.67618C2.6317 3.9106 2.5 4.22854 2.5 4.56006V22.0601C2.4998 22.3007 2.56905 22.5362 2.69943 22.7384C2.8298 22.9406 3.01577 23.1009 3.235 23.2001ZM30 20.8101C30.8777 20.8101 31.7399 21.0411 32.4999 21.48C33.26 21.9188 33.8912 22.55 34.33 23.3101H36.25C36.5815 23.3101 36.8995 23.1784 37.1339 22.9439C37.3683 22.7095 37.5 22.3916 37.5 22.0601V16.6851C37.4995 16.4014 37.4025 16.1263 37.225 15.9051L33.525 11.2801C33.4081 11.1337 33.2598 11.0154 33.091 10.9341C32.9222 10.8527 32.7374 10.8103 32.55 10.8101H30V20.8101ZM7.5 23.3101C6.83696 23.3101 6.20107 23.5735 5.73223 24.0423C5.26339 24.5111 5 25.147 5 25.8101C5 26.4731 5.26339 27.109 5.73223 27.5778C6.20107 28.0467 6.83696 28.3101 7.5 28.3101C8.16304 28.3101 8.79893 28.0467 9.26777 27.5778C9.73661 27.109 10 26.4731 10 25.8101C10 25.147 9.73661 24.5111 9.26777 24.0423C8.79893 23.5735 8.16304 23.3101 7.5 23.3101ZM30 23.3101C29.337 23.3101 28.7011 23.5735 28.2322 24.0423C27.7634 24.5111 27.5 25.147 27.5 25.8101C27.5 26.4731 27.7634 27.109 28.2322 27.5778C28.7011 28.0467 29.337 28.3101 30 28.3101C30.663 28.3101 31.2989 28.0467 31.7678 27.5778C32.2366 27.109 32.5 26.4731 32.5 25.8101C32.5 25.147 32.2366 24.5111 31.7678 24.0423C31.2989 23.5735 30.663 23.3101 30 23.3101Z" fill="#681446"/>
</svg>
