<svg width="30" height="31" viewBox="0 0 30 31" fill="none" xmlns="http://www.w3.org/2000/svg">
<path d="M19 29.6201H18C18 29.8058 18.0517 29.9879 18.1493 30.1458C18.247 30.3038 18.3867 30.4315 18.5528 30.5145C18.7189 30.5976 18.9048 30.6328 19.0898 30.6161C19.2748 30.5994 19.4514 30.5315 19.6 30.4201L19 29.6201ZM23 26.6201L23.6 25.8201C23.4269 25.6903 23.2164 25.6201 23 25.6201C22.7836 25.6201 22.5731 25.6903 22.4 25.8201L23 26.6201ZM27 29.6201L26.4 30.4201C26.5486 30.5315 26.7252 30.5994 26.9102 30.6161C27.0952 30.6328 27.2811 30.5976 27.4472 30.5145C27.6133 30.4315 27.753 30.3038 27.8507 30.1458C27.9483 29.9879 28 29.8058 28 29.6201H27ZM23 22.6201C21.6739 22.6201 20.4021 22.0933 19.4645 21.1557C18.5268 20.218 18 18.9462 18 17.6201H16C16 19.4766 16.7375 21.2571 18.0503 22.5699C19.363 23.8826 21.1435 24.6201 23 24.6201V22.6201ZM28 17.6201C28 18.9462 27.4732 20.218 26.5355 21.1557C25.5979 22.0933 24.3261 22.6201 23 22.6201V24.6201C24.8565 24.6201 26.637 23.8826 27.9497 22.5699C29.2625 21.2571 30 19.4766 30 17.6201H28ZM23 12.6201C24.3261 12.6201 25.5979 13.1469 26.5355 14.0846C27.4732 15.0223 28 16.294 28 17.6201H30C30 15.7636 29.2625 13.9831 27.9497 12.6704C26.637 11.3576 24.8565 10.6201 23 10.6201V12.6201ZM23 10.6201C21.1435 10.6201 19.363 11.3576 18.0503 12.6704C16.7375 13.9831 16 15.7636 16 17.6201H18C18 16.294 18.5268 15.0223 19.4645 14.0846C20.4021 13.1469 21.6739 12.6201 23 12.6201V10.6201ZM18 21.6201V29.6201H20V21.6201H18ZM19.6 30.4201L23.6 27.4201L22.4 25.8201L18.4 28.8201L19.6 30.4201ZM22.4 27.4201L26.4 30.4201L27.6 28.8201L23.6 25.8201L22.4 27.4201ZM28 29.6201V21.6201H26V29.6201H28ZM30 10.6201V3.62012H28V10.6201H30ZM27 0.620117H3V2.62012H27V0.620117ZM0 3.62012V27.6201H2V3.62012H0ZM3 30.6201H16V28.6201H3V30.6201ZM0 27.6201C0 28.4158 0.31607 29.1788 0.87868 29.7414C1.44129 30.304 2.20435 30.6201 3 30.6201V28.6201C2.73478 28.6201 2.48043 28.5148 2.29289 28.3272C2.10536 28.1397 2 27.8853 2 27.6201H0ZM3 0.620117C2.20435 0.620117 1.44129 0.936188 0.87868 1.4988C0.31607 2.06141 0 2.82447 0 3.62012H2C2 3.3549 2.10536 3.10055 2.29289 2.91301C2.48043 2.72547 2.73478 2.62012 3 2.62012V0.620117ZM30 3.62012C30 2.82447 29.6839 2.06141 29.1213 1.4988C28.5587 0.936188 27.7956 0.620117 27 0.620117V2.62012C27.2652 2.62012 27.5196 2.72547 27.7071 2.91301C27.8946 3.10055 28 3.3549 28 3.62012H30ZM6 10.6201H16V8.62012H6V10.6201ZM6 16.6201H12V14.6201H6V16.6201Z" fill="#681446"/>
</svg>
