<svg width="40" height="40" viewBox="0 0 40 40" fill="none" xmlns="http://www.w3.org/2000/svg">
<path d="M18.9602 8.08005C14.7202 8.48005 10.4802 12 10.2402 16.88C10.1602 19.92 10.9602 22.16 13.8402 22.8C15.1202 20.64 13.4402 20.16 13.2002 18.56C12.1602 12.08 20.7202 7.60005 25.2002 12.16C28.3202 15.28 26.2402 24.96 21.2802 24C16.4802 23.04 23.6002 15.36 19.8402 13.84C16.7202 12.64 15.1202 17.6 16.5602 20.08C15.6802 24.32 13.8402 28.32 14.5602 33.68C17.0402 31.92 17.8402 28.48 18.4802 24.9601C19.6802 25.68 20.4002 26.48 21.9202 26.64C27.6802 27.12 30.8802 20.88 30.1602 15.12C29.4402 10 24.4002 7.44005 18.9602 8.08005Z" fill="#ACAAA6"/>
</svg>
