<svg width="32" height="32" viewBox="0 0 32 32" fill="none" xmlns="http://www.w3.org/2000/svg">
<path d="M20.5602 6.3999H21.1202H21.6802L22.0802 6.4799C22.3202 6.5599 22.5602 6.6399 22.8002 6.7199C23.0402 6.7999 23.2002 6.8799 23.4402 7.0399C23.6802 7.1199 23.8402 7.1999 24.0002 7.3599C24.1602 7.4399 24.3202 7.5999 24.4802 7.7599C24.6402 7.9199 24.8002 7.9199 25.1202 7.8399C25.3602 7.7599 25.6802 7.6799 26.0002 7.5999C26.3202 7.5199 26.6402 7.3599 26.9602 7.1999C27.2802 7.0399 27.4402 6.9599 27.5202 6.9599C27.6002 6.9599 27.6002 6.8799 27.6002 6.8799V6.9599C27.6002 6.9599 27.6002 7.1999 27.4402 7.4399C27.2802 7.6799 27.1202 7.9199 26.9602 8.1599C26.8002 8.3999 26.5602 8.6399 26.4802 8.7199C26.3202 8.8799 26.2402 8.9599 26.1602 8.9599C26.0802 9.0399 26.0802 9.0399 26.0002 9.1199L25.9202 9.1999H26.0002H26.0802L26.6402 9.0399C27.0402 8.9599 27.4402 8.8799 27.7602 8.7199C28.1602 8.5599 28.3202 8.5599 28.3202 8.5599H28.4002H28.4802H28.5602C28.5602 8.5599 28.4802 8.7199 28.3202 8.9599C28.1602 9.1999 28.0802 9.2799 28.0002 9.3599C28.0002 9.3599 28.0002 9.3599 27.9202 9.4399C27.9202 9.4399 27.7602 9.5999 27.4402 9.9199C27.2002 10.1599 26.8802 10.4799 26.6402 10.6399C26.4002 10.8799 26.2402 11.1199 26.2402 11.4399C26.2402 11.7599 26.2402 12.0799 26.1602 12.4799C26.1602 12.8799 26.0802 13.2799 26.0002 13.7599C25.9202 14.2399 25.8402 14.7199 25.6002 15.3599C25.4402 15.9199 25.2002 16.4799 25.0402 17.0399C24.8002 17.5999 24.5602 18.0799 24.3202 18.5599C24.0802 19.0399 23.8402 19.3599 23.6002 19.6799C23.3602 19.9999 23.2002 20.2399 22.9602 20.5599C22.7202 20.7999 22.4802 21.1199 22.1602 21.4399C21.8402 21.7599 21.6002 21.9199 21.6002 21.9999C21.6002 21.9999 21.4402 22.1599 21.2002 22.3199C20.9602 22.5599 20.7202 22.7199 20.4002 22.9599C20.1602 23.1999 19.8402 23.3599 19.6002 23.4399C19.3602 23.5999 19.1202 23.7599 18.7202 23.9199C18.4002 24.0799 18.0002 24.2399 17.6802 24.3999C17.2802 24.5599 16.8802 24.7199 16.4802 24.7999C16.0802 24.9599 15.6802 25.0399 15.2802 25.1199C14.8802 25.1999 14.4002 25.2799 13.9202 25.2799L13.2002 25.3599H12.4802H11.7602H11.6002C11.4402 25.3599 11.3602 25.3599 11.2802 25.3599C11.2002 25.3599 10.8802 25.2799 10.4002 25.2799C9.9202 25.1999 9.5202 25.1199 9.2002 25.0399C8.8802 24.9599 8.4802 24.7999 7.9202 24.6399C7.3602 24.4799 6.8802 24.2399 6.4802 23.9999C6.0802 23.7599 5.8402 23.6799 5.6802 23.5999C5.6002 23.5199 5.4402 23.5199 5.3602 23.4399L5.2002 23.3599H5.2802C5.3602 23.3599 5.5202 23.3599 5.8402 23.3599C6.1602 23.3599 6.4002 23.3599 6.7202 23.3599C7.04019 23.3599 7.3602 23.2799 7.6802 23.2799C8.0002 23.1999 8.4002 23.1199 8.8802 23.0399C9.3602 22.8799 9.7602 22.7999 10.1602 22.6399C10.5602 22.4799 10.8002 22.3199 10.9602 22.2399C11.1202 22.1599 11.3602 21.9999 11.6802 21.7599L12.1602 21.4399H12.0002C11.9202 21.4399 11.7602 21.4399 11.6802 21.4399C11.6002 21.4399 11.4402 21.4399 11.2002 21.3599C10.9602 21.2799 10.7202 21.1999 10.4802 21.1199C10.2402 21.0399 10.0002 20.8799 9.6802 20.7199C9.3602 20.5599 9.2802 20.3999 9.1202 20.3199C9.04019 20.2399 8.8802 20.0799 8.7202 19.9199C8.56019 19.7599 8.4002 19.5199 8.2402 19.3599C8.0802 19.1999 8.0002 18.9599 7.8402 18.6399L7.6802 18.2399H7.9202C8.08019 18.2399 8.3202 18.2399 8.6402 18.2399C8.9602 18.2399 9.2002 18.2399 9.3602 18.1599C9.5202 18.1599 9.6002 18.1599 9.6002 18.0799H9.5202H9.4402C9.4402 18.0799 9.3602 18.0799 9.2802 17.9999C9.2002 17.9199 9.04019 17.9199 8.7202 17.7599C8.4002 17.5999 8.1602 17.5199 8.0002 17.3599C7.8402 17.1999 7.6802 17.1199 7.4402 16.9599C7.2802 16.7999 7.1202 16.6399 6.8802 16.3999C6.7202 16.1599 6.4802 15.8399 6.3202 15.5999C6.1602 15.2799 6.0802 14.9599 6.0002 14.7199C5.9202 14.3999 5.8402 14.1599 5.8402 13.8399V13.3599L6.1602 13.5199C6.4002 13.5999 6.6402 13.6799 6.9602 13.7599C7.2802 13.8399 7.5202 13.8399 7.5202 13.8399H7.6002H7.6802H7.7602C7.7602 13.8399 7.6802 13.7599 7.6002 13.6799C7.5202 13.5999 7.3602 13.4399 7.2002 13.3599C7.0402 13.1999 6.9602 13.0399 6.8002 12.8799C6.6402 12.7199 6.5602 12.5599 6.4802 12.3999C6.4002 11.9999 6.2402 11.7599 6.1602 11.5199C6.0802 11.2799 6.0002 10.9599 5.9202 10.7199C5.8402 10.4799 5.8402 10.1599 5.8402 9.9199C5.8402 9.6799 5.8402 9.4399 5.8402 9.1999C5.8402 9.0399 5.9202 8.7999 6.0002 8.5599C6.0802 8.3199 6.1602 8.0799 6.2402 7.7599L6.4002 7.3599L6.7202 7.6799C6.8802 7.9199 7.1202 8.1599 7.3602 8.3999C7.7602 8.6399 7.9202 8.7999 7.9202 8.7999L8.0002 8.8799C8.0802 8.9599 8.1602 9.0399 8.4002 9.2799C8.6402 9.4399 8.9602 9.6799 9.3602 9.9999C9.7602 10.3199 10.1602 10.5599 10.6402 10.7999C11.1202 11.0399 11.6002 11.2799 12.1602 11.5199C12.7202 11.7599 13.1202 11.8399 13.2802 11.9199C13.5202 11.9999 13.8402 12.0799 14.4002 12.1599C14.9602 12.2399 15.3602 12.3199 15.6002 12.3199C15.8402 12.3199 16.0802 12.3999 16.1602 12.3999H16.3202V11.9999C16.3202 11.8399 16.2402 11.5999 16.2402 11.2799C16.2402 10.9599 16.2402 10.6399 16.3202 10.3999C16.4002 10.1599 16.4802 9.8399 16.5602 9.5999C16.6402 9.3599 16.7202 9.1199 16.8802 8.9599C16.9602 8.7999 17.1202 8.6399 17.2802 8.3999C17.4402 8.1599 17.6002 7.9999 17.9202 7.7599C18.1602 7.5199 18.4802 7.3599 18.8002 7.1199C19.1202 6.9599 19.4402 6.7999 19.6802 6.7199C19.9202 6.6399 20.1602 6.5599 20.3202 6.5599C20.4802 6.5599 20.5602 6.3999 20.5602 6.3999Z" fill="#ACAAA6"/>
</svg>
