<svg width="28" height="22" viewBox="0 0 28 22" fill="none" xmlns="http://www.w3.org/2000/svg">
<path d="M24.6875 5.87744V3.18994L14 9.87744L3.3125 3.18994V5.87744L14 12.5024L24.6875 5.87744ZM24.6875 0.502441C25.3958 0.502441 26 0.773275 26.5 1.31494C27.0417 1.85661 27.3125 2.48161 27.3125 3.18994V19.1899C27.3125 19.8983 27.0417 20.5233 26.5 21.0649C26 21.6066 25.3958 21.8774 24.6875 21.8774H3.3125C2.60417 21.8774 1.97917 21.6066 1.4375 21.0649C0.9375 20.5233 0.6875 19.8983 0.6875 19.1899V3.18994C0.6875 2.48161 0.9375 1.85661 1.4375 1.31494C1.97917 0.773275 2.60417 0.502441 3.3125 0.502441H24.6875Z" fill="#681446"/>
</svg>
