<svg width="30" height="31" viewBox="0 0 30 31" fill="none" xmlns="http://www.w3.org/2000/svg">
<path d="M20.45 17.8799C20.55 17.0549 20.625 16.2299 20.625 15.3799C20.625 14.5299 20.55 13.7049 20.45 12.8799H24.675C24.875 13.6799 25 14.5174 25 15.3799C25 16.2424 24.875 17.0799 24.675 17.8799M18.2375 24.8299C18.9875 23.4424 19.5625 21.9424 19.9625 20.3799H23.65C22.439 22.4652 20.5176 24.0449 18.2375 24.8299ZM17.925 17.8799H12.075C11.95 17.0549 11.875 16.2299 11.875 15.3799C11.875 14.5299 11.95 13.6924 12.075 12.8799H17.925C18.0375 13.6924 18.125 14.5299 18.125 15.3799C18.125 16.2299 18.0375 17.0549 17.925 17.8799ZM15 25.3299C13.9625 23.8299 13.125 22.1674 12.6125 20.3799H17.3875C16.875 22.1674 16.0375 23.8299 15 25.3299ZM10 10.3799H6.35C7.54857 8.2889 9.46849 6.70674 11.75 5.92988C11 7.31738 10.4375 8.81738 10 10.3799ZM6.35 20.3799H10C10.4375 21.9424 11 23.4424 11.75 24.8299C9.47328 24.0445 7.55606 22.4645 6.35 20.3799ZM5.325 17.8799C5.125 17.0799 5 16.2424 5 15.3799C5 14.5174 5.125 13.6799 5.325 12.8799H9.55C9.45 13.7049 9.375 14.5299 9.375 15.3799C9.375 16.2299 9.45 17.0549 9.55 17.8799M15 5.41738C16.0375 6.91738 16.875 8.59238 17.3875 10.3799H12.6125C13.125 8.59238 13.9625 6.91738 15 5.41738ZM23.65 10.3799H19.9625C19.5713 8.83171 18.992 7.33725 18.2375 5.92988C20.5375 6.71738 22.45 8.30488 23.65 10.3799ZM15 2.87988C8.0875 2.87988 2.5 8.50488 2.5 15.3799C2.5 18.6951 3.81696 21.8745 6.16117 24.2187C7.3219 25.3794 8.69989 26.3002 10.2165 26.9284C11.733 27.5566 13.3585 27.8799 15 27.8799C18.3152 27.8799 21.4946 26.5629 23.8388 24.2187C26.183 21.8745 27.5 18.6951 27.5 15.3799C27.5 13.7384 27.1767 12.1129 26.5485 10.5963C25.9203 9.07977 24.9996 7.70178 23.8388 6.54105C22.6781 5.38032 21.3001 4.45957 19.7835 3.83139C18.267 3.2032 16.6415 2.87988 15 2.87988Z" fill="#681446"/>
</svg>
